#usda 1.0
(
    defaultPrim = "PegTube"
)

def Xform "PegTube"
{
    def Mesh "Tube" (
        prepend apiSchemas = ["PhysicsCollisionAPI"]
    )
    {
        uniform bool physics:collisionEnabled = 1
        uniform token subdivisionScheme = "none"
        point3f[] points = [
        (0.020000, 0.000000, -0.075000),
        (0.019616, 0.003902, -0.075000),
        (0.018478, 0.007654, -0.075000),
        (0.016629, 0.011111, -0.075000),
        (0.014142, 0.014142, -0.075000),
        (0.011111, 0.016629, -0.075000),
        (0.007654, 0.018478, -0.075000),
        (0.003902, 0.019616, -0.075000),
        (0.000000, 0.020000, -0.075000),
        (-0.003902, 0.019616, -0.075000),
        (-0.007654, 0.018478, -0.075000),
        (-0.011111, 0.016629, -0.075000),
        (-0.014142, 0.014142, -0.075000),
        (-0.016629, 0.011111, -0.075000),
        (-0.018478, 0.007654, -0.075000),
        (-0.019616, 0.003902, -0.075000),
        (-0.020000, 0.000000, -0.075000),
        (-0.019616, -0.003902, -0.075000),
        (-0.018478, -0.007654, -0.075000),
        (-0.016629, -0.011111, -0.075000),
        (-0.014142, -0.014142, -0.075000),
        (-0.011111, -0.016629, -0.075000),
        (-0.007654, -0.018478, -0.075000),
        (-0.003902, -0.019616, -0.075000),
        (-0.000000, -0.020000, -0.075000),
        (0.003902, -0.019616, -0.075000),
        (0.007654, -0.018478, -0.075000),
        (0.011111, -0.016629, -0.075000),
        (0.014142, -0.014142, -0.075000),
        (0.016629, -0.011111, -0.075000),
        (0.018478, -0.007654, -0.075000),
        (0.019616, -0.003902, -0.075000),
        (0.020000, 0.000000, 0.075000),
        (0.019616, 0.003902, 0.075000),
        (0.018478, 0.007654, 0.075000),
        (0.016629, 0.011111, 0.075000),
        (0.014142, 0.014142, 0.075000),
        (0.011111, 0.016629, 0.075000),
        (0.007654, 0.018478, 0.075000),
        (0.003902, 0.019616, 0.075000),
        (0.000000, 0.020000, 0.075000),
        (-0.003902, 0.019616, 0.075000),
        (-0.007654, 0.018478, 0.075000),
        (-0.011111, 0.016629, 0.075000),
        (-0.014142, 0.014142, 0.075000),
        (-0.016629, 0.011111, 0.075000),
        (-0.018478, 0.007654, 0.075000),
        (-0.019616, 0.003902, 0.075000),
        (-0.020000, 0.000000, 0.075000),
        (-0.019616, -0.003902, 0.075000),
        (-0.018478, -0.007654, 0.075000),
        (-0.016629, -0.011111, 0.075000),
        (-0.014142, -0.014142, 0.075000),
        (-0.011111, -0.016629, 0.075000),
        (-0.007654, -0.018478, 0.075000),
        (-0.003902, -0.019616, 0.075000),
        (-0.000000, -0.020000, 0.075000),
        (0.003902, -0.019616, 0.075000),
        (0.007654, -0.018478, 0.075000),
        (0.011111, -0.016629, 0.075000),
        (0.014142, -0.014142, 0.075000),
        (0.016629, -0.011111, 0.075000),
        (0.018478, -0.007654, 0.075000),
        (0.019616, -0.003902, 0.075000),
        (0.018000, 0.000000, -0.075000),
        (0.017654, 0.003512, -0.075000),
        (0.016630, 0.006888, -0.075000),
        (0.014966, 0.010000, -0.075000),
        (0.012728, 0.012728, -0.075000),
        (0.010000, 0.014966, -0.075000),
        (0.006888, 0.016630, -0.075000),
        (0.003512, 0.017654, -0.075000),
        (0.000000, 0.018000, -0.075000),
        (-0.003512, 0.017654, -0.075000),
        (-0.006888, 0.016630, -0.075000),
        (-0.010000, 0.014966, -0.075000),
        (-0.012728, 0.012728, -0.075000),
        (-0.014966, 0.010000, -0.075000),
        (-0.016630, 0.006888, -0.075000),
        (-0.017654, 0.003512, -0.075000),
        (-0.018000, 0.000000, -0.075000),
        (-0.017654, -0.003512, -0.075000),
        (-0.016630, -0.006888, -0.075000),
        (-0.014966, -0.010000, -0.075000),
        (-0.012728, -0.012728, -0.075000),
        (-0.010000, -0.014966, -0.075000),
        (-0.006888, -0.016630, -0.075000),
        (-0.003512, -0.017654, -0.075000),
        (-0.000000, -0.018000, -0.075000),
        (0.003512, -0.017654, -0.075000),
        (0.006888, -0.016630, -0.075000),
        (0.010000, -0.014966, -0.075000),
        (0.012728, -0.012728, -0.075000),
        (0.014966, -0.010000, -0.075000),
        (0.016630, -0.006888, -0.075000),
        (0.017654, -0.003512, -0.075000),
        (0.018000, 0.000000, 0.075000),
        (0.017654, 0.003512, 0.075000),
        (0.016630, 0.006888, 0.075000),
        (0.014966, 0.010000, 0.075000),
        (0.012728, 0.012728, 0.075000),
        (0.010000, 0.014966, 0.075000),
        (0.006888, 0.016630, 0.075000),
        (0.003512, 0.017654, 0.075000),
        (0.000000, 0.018000, 0.075000),
        (-0.003512, 0.017654, 0.075000),
        (-0.006888, 0.016630, 0.075000),
        (-0.010000, 0.014966, 0.075000),
        (-0.012728, 0.012728, 0.075000),
        (-0.014966, 0.010000, 0.075000),
        (-0.016630, 0.006888, 0.075000),
        (-0.017654, 0.003512, 0.075000),
        (-0.018000, 0.000000, 0.075000),
        (-0.017654, -0.003512, 0.075000),
        (-0.016630, -0.006888, 0.075000),
        (-0.014966, -0.010000, 0.075000),
        (-0.012728, -0.012728, 0.075000),
        (-0.010000, -0.014966, 0.075000),
        (-0.006888, -0.016630, 0.075000),
        (-0.003512, -0.017654, 0.075000),
        (-0.000000, -0.018000, 0.075000),
        (0.003512, -0.017654, 0.075000),
        (0.006888, -0.016630, 0.075000),
        (0.010000, -0.014966, 0.075000),
        (0.012728, -0.012728, 0.075000),
        (0.014966, -0.010000, 0.075000),
        (0.016630, -0.006888, 0.075000),
        (0.017654, -0.003512, 0.075000)
        ]
        int[] faceVertexCounts = [4, 4, 4, 4, 4, 4, 4, 4, 4, 4, 4, 4, 4, 4, 4, 4, 4, 4, 4, 4, 4, 4, 4, 4, 4, 4, 4, 4, 4, 4, 4, 4, 4, 4, 4, 4, 4, 4, 4, 4, 4, 4, 4, 4, 4, 4, 4, 4, 4, 4, 4, 4, 4, 4, 4, 4, 4, 4, 4, 4, 4, 4, 4, 4]
        int[] faceVertexIndices = [0, 1, 33, 32, 65, 64, 96, 97, 1, 2, 34, 33, 66, 65, 97, 98, 2, 3, 35, 34, 67, 66, 98, 99, 3, 4, 36, 35, 68, 67, 99, 100, 4, 5, 37, 36, 69, 68, 100, 101, 5, 6, 38, 37, 70, 69, 101, 102, 6, 7, 39, 38, 71, 70, 102, 103, 7, 8, 40, 39, 72, 71, 103, 104, 8, 9, 41, 40, 73, 72, 104, 105, 9, 10, 42, 41, 74, 73, 105, 106, 10, 11, 43, 42, 75, 74, 106, 107, 11, 12, 44, 43, 76, 75, 107, 108, 12, 13, 45, 44, 77, 76, 108, 109, 13, 14, 46, 45, 78, 77, 109, 110, 14, 15, 47, 46, 79, 78, 110, 111, 15, 16, 48, 47, 80, 79, 111, 112, 16, 17, 49, 48, 81, 80, 112, 113, 17, 18, 50, 49, 82, 81, 113, 114, 18, 19, 51, 50, 83, 82, 114, 115, 19, 20, 52, 51, 84, 83, 115, 116, 20, 21, 53, 52, 85, 84, 116, 117, 21, 22, 54, 53, 86, 85, 117, 118, 22, 23, 55, 54, 87, 86, 118, 119, 23, 24, 56, 55, 88, 87, 119, 120, 24, 25, 57, 56, 89, 88, 120, 121, 25, 26, 58, 57, 90, 89, 121, 122, 26, 27, 59, 58, 91, 90, 122, 123, 27, 28, 60, 59, 92, 91, 123, 124, 28, 29, 61, 60, 93, 92, 124, 125, 29, 30, 62, 61, 94, 93, 125, 126, 30, 31, 63, 62, 95, 94, 126, 127, 31, 0, 32, 63, 64, 95, 127, 96]
    }
}
